<?xml version="1.0" encoding="utf-8"?>
<!-- Generator: Adobe Illustrator 18.0.0, SVG Export Plug-In . SVG Version: 6.00 Build 0)  -->
<!DOCTYPE svg PUBLIC "-//W3C//DTD SVG 1.1//EN" "http://www.w3.org/Graphics/SVG/1.1/DTD/svg11.dtd">
<svg version="1.1" id="Layer_1" xmlns="http://www.w3.org/2000/svg" xmlns:xlink="http://www.w3.org/1999/xlink" x="0px" y="0px"
	 viewBox="0 0 64 64" enable-background="new 0 0 64 64" xml:space="preserve">
<g>
	<g>
		<g>
			<rect x="20" y="8" width="44" height="8"/>
		</g>
	</g>
	<g>
		<g>
			<rect x="20" y="28" width="44" height="8"/>
		</g>
	</g>
	<g>
		<g>
			<rect x="20" y="48" width="44" height="8"/>
		</g>
	</g>
	<g>
		<g>
			<path d="M6,18L6,18c3.3,0,6-2.7,6-6v0c0-3.3-2.7-6-6-6h0c-3.3,0-6,2.7-6,6v0C0,15.3,2.7,18,6,18z"/>
		</g>
	</g>
	<g>
		<g>
			<path d="M6,38L6,38c3.3,0,6-2.7,6-6v0c0-3.3-2.7-6-6-6h0c-3.3,0-6,2.7-6,6v0C0,35.3,2.7,38,6,38z"/>
		</g>
	</g>
	<g>
		<g>
			<path d="M6,58L6,58c3.3,0,6-2.7,6-6v0c0-3.3-2.7-6-6-6h0c-3.3,0-6,2.7-6,6v0C0,55.3,2.7,58,6,58z"/>
		</g>
	</g>
</g>
</svg>
